<svg width="765" height="250" viewBox="0 0 765 250" fill="none" xmlns="http://www.w3.org/2000/svg">
<mask id="mask0_8_2" style="mask-type:luminance" maskUnits="userSpaceOnUse" x="0" y="31" width="220" height="193">
<path d="M220 31.1734H0V223.674H220V31.1734Z" fill="white"/>
</mask>
<g mask="url(#mask0_8_2)">
<path d="M165.004 223.674V209.924C165.004 208.118 164.648 206.33 163.958 204.662C163.267 202.994 162.254 201.478 160.977 200.2C159.7 198.924 158.184 197.911 156.516 197.22C154.848 196.529 153.06 196.174 151.254 196.174H96.2502C78.0165 196.174 60.5296 188.93 47.6362 176.037C34.743 163.144 27.4995 145.658 27.4992 127.424C27.4992 118.395 29.2776 109.455 32.7326 101.114C36.1877 92.7728 41.2519 85.1939 47.636 78.8097C54.0202 72.4257 61.5992 67.3617 69.9404 63.9067C78.2816 60.4518 87.2217 58.6736 96.2502 58.6737H151.25C153.056 58.6743 154.845 58.319 156.513 57.6283C158.182 56.9375 159.699 55.9247 160.975 54.6479C162.253 53.3709 163.266 51.8549 163.958 50.1864C164.648 48.5179 165.004 46.7296 165.004 44.9235V31.1734H96.2533C83.6136 31.1734 71.0977 33.663 59.42 38.5C47.7425 43.337 37.132 50.4268 28.1945 59.3644C19.2568 68.3022 12.1672 78.9127 7.33027 90.5904C2.49336 102.268 0.0038929 114.784 0.00402833 127.424C0.00402832 152.95 10.1445 177.432 28.1947 195.483C46.2449 213.533 70.7263 223.674 96.2533 223.674H165.004Z" fill="url(#paint0_linear_8_2)"/>
<path d="M54.9997 127.424C54.9997 138.364 59.3456 148.855 67.0812 156.591C74.8167 164.327 85.3085 168.672 96.2482 168.672H165.004C172.298 168.672 179.292 171.57 184.449 176.727C189.606 181.884 192.504 188.879 192.504 196.173V223.673H220.004V196.174C220.004 181.587 214.21 167.598 203.896 157.282C193.58 146.968 179.591 141.174 165.004 141.174H96.2503C92.6035 141.174 89.1062 139.725 86.5274 137.147C83.9488 134.568 82.5001 131.07 82.5001 127.424C82.5001 123.777 83.9488 120.28 86.5274 117.701C89.1062 115.122 92.6035 113.673 96.2503 113.673H165.004C179.591 113.673 193.58 107.879 203.896 97.5644C214.21 87.25 220.004 73.2606 220.004 58.6737V31.1734H192.5V58.6737C192.5 65.9663 189.603 72.9603 184.447 78.1173C179.291 83.2743 172.297 86.172 165.004 86.1731H96.2503C90.8331 86.1728 85.469 87.2396 80.4641 89.3125C75.4592 91.3855 70.9116 94.424 67.0812 98.2545C63.2507 102.085 60.2122 106.633 58.1393 111.637C56.0663 116.642 54.9995 122.007 54.9997 127.424Z" fill="url(#paint1_linear_8_2)"/>
</g>
<path d="M276.336 100.152C267.376 100.152 260.72 97.144 256.368 91.128C252.08 85.048 249.936 76.504 249.936 65.496C249.936 54.488 252.08 45.976 256.368 39.96C260.72 33.88 267.376 30.84 276.336 30.84C279.792 30.84 282.832 31.32 285.456 32.28C288.144 33.176 290.448 34.456 292.368 36.12C294.288 37.784 295.856 39.8 297.072 42.168C298.352 44.536 299.344 47.192 300.048 50.136L286.608 53.4C286.224 51.8 285.776 50.328 285.264 48.984C284.752 47.64 284.08 46.488 283.248 45.528C282.48 44.568 281.488 43.832 280.272 43.32C279.12 42.744 277.712 42.456 276.048 42.456C272.144 42.456 269.36 43.992 267.696 47.064C266.096 50.072 265.296 54.264 265.296 59.64V71.352C265.296 76.728 266.096 80.952 267.696 84.024C269.36 87.032 272.144 88.536 276.048 88.536C279.376 88.536 281.776 87.512 283.248 85.464C284.784 83.416 285.904 80.792 286.608 77.592L300.048 80.856C299.344 83.8 298.352 86.456 297.072 88.824C295.856 91.192 294.288 93.24 292.368 94.968C290.448 96.632 288.144 97.912 285.456 98.808C282.832 99.704 279.792 100.152 276.336 100.152ZM345.323 99L341.099 82.872H322.763L318.635 99H304.043L322.187 31.992H342.539L360.683 99H345.323ZM332.363 45.912H331.595L325.067 71.256H338.891L332.363 45.912ZM388.869 100.152C383.237 100.152 378.341 99.224 374.181 97.368C370.021 95.512 366.661 92.984 364.101 89.784L372.453 80.568C374.885 83.256 377.541 85.24 380.421 86.52C383.365 87.8 386.341 88.44 389.349 88.44C392.805 88.44 395.429 87.672 397.221 86.136C399.013 84.6 399.909 82.392 399.909 79.512C399.909 77.144 399.205 75.352 397.797 74.136C396.453 72.92 394.149 72.056 390.885 71.544L383.877 70.392C377.861 69.368 373.509 67.16 370.821 63.768C368.133 60.312 366.789 56.12 366.789 51.192C366.789 44.728 368.901 39.736 373.125 36.216C377.349 32.632 383.269 30.84 390.885 30.84C396.069 30.84 400.581 31.64 404.421 33.24C408.261 34.84 411.365 37.016 413.733 39.768L405.573 48.888C403.781 46.904 401.669 45.368 399.237 44.28C396.805 43.128 394.053 42.552 390.981 42.552C384.517 42.552 381.285 45.208 381.285 50.52C381.285 52.824 381.989 54.552 383.397 55.704C384.869 56.856 387.237 57.72 390.501 58.296L397.509 59.544C402.949 60.504 407.141 62.552 410.085 65.688C413.029 68.824 414.501 73.048 414.501 78.36C414.501 81.496 413.957 84.408 412.869 87.096C411.781 89.72 410.149 92.024 407.973 94.008C405.797 95.928 403.109 97.432 399.909 98.52C396.773 99.608 393.093 100.152 388.869 100.152ZM426.368 99V31.992H469.184V43.8H440.768V59.16H468.224V70.968H440.768V87.192H469.184V99H426.368ZM273.744 225.152C268.112 225.152 263.216 224.224 259.056 222.368C254.896 220.512 251.536 217.984 248.976 214.784L257.328 205.568C259.76 208.256 262.416 210.24 265.296 211.52C268.24 212.8 271.216 213.44 274.224 213.44C277.68 213.44 280.304 212.672 282.096 211.136C283.888 209.6 284.784 207.392 284.784 204.512C284.784 202.144 284.08 200.352 282.672 199.136C281.328 197.92 279.024 197.056 275.76 196.544L268.752 195.392C262.736 194.368 258.384 192.16 255.696 188.768C253.008 185.312 251.664 181.12 251.664 176.192C251.664 169.728 253.776 164.736 258 161.216C262.224 157.632 268.144 155.84 275.76 155.84C280.944 155.84 285.456 156.64 289.296 158.24C293.136 159.84 296.24 162.016 298.608 164.768L290.448 173.888C288.656 171.904 286.544 170.368 284.112 169.28C281.68 168.128 278.928 167.552 275.856 167.552C269.392 167.552 266.16 170.208 266.16 175.52C266.16 177.824 266.864 179.552 268.272 180.704C269.744 181.856 272.112 182.72 275.376 183.296L282.384 184.544C287.824 185.504 292.016 187.552 294.96 190.688C297.904 193.824 299.376 198.048 299.376 203.36C299.376 206.496 298.832 209.408 297.744 212.096C296.656 214.72 295.024 217.024 292.848 219.008C290.672 220.928 287.984 222.432 284.784 223.52C281.648 224.608 277.968 225.152 273.744 225.152ZM339.563 168.8V224H325.163V168.8H305.867V156.992H358.859V168.8H339.563ZM380.805 156.992V199.424C380.805 201.536 380.869 203.488 380.997 205.28C381.189 207.008 381.573 208.48 382.149 209.696C382.789 210.912 383.717 211.872 384.933 212.576C386.149 213.216 387.813 213.536 389.925 213.536C392.037 213.536 393.701 213.216 394.917 212.576C396.133 211.872 397.029 210.912 397.605 209.696C398.245 208.48 398.629 207.008 398.757 205.28C398.949 203.488 399.045 201.536 399.045 199.424V156.992H413.445V197.504C413.445 202.112 413.125 206.144 412.485 209.6C411.909 213.056 410.757 215.936 409.029 218.24C407.301 220.544 404.901 222.272 401.829 223.424C398.757 224.576 394.789 225.152 389.925 225.152C385.061 225.152 381.093 224.576 378.021 223.424C374.949 222.272 372.549 220.544 370.821 218.24C369.093 215.936 367.909 213.056 367.269 209.6C366.693 206.144 366.405 202.112 366.405 197.504V156.992H380.805ZM424.832 156.992H446.432C455.456 156.992 462.144 159.872 466.496 165.632C470.848 171.392 473.024 179.68 473.024 190.496C473.024 201.312 470.848 209.6 466.496 215.36C462.144 221.12 455.456 224 446.432 224H424.832V156.992ZM445.472 212.672C449.76 212.672 452.896 211.296 454.88 208.544C456.864 205.792 457.856 201.792 457.856 196.544V184.352C457.856 179.168 456.864 175.2 454.88 172.448C452.896 169.696 449.76 168.32 445.472 168.32H439.04V212.672H445.472ZM497.85 224V200.288L476.634 156.992H492.666L499.77 172.544L504.954 185.696H505.722L510.906 172.544L518.01 156.992H533.466L512.25 200.288V224H497.85Z" fill="#F6F6F6"/>
<path d="M576.8 225.152C572.768 225.152 569.184 224.672 566.048 223.712C562.912 222.688 560.256 221.312 558.08 219.584C555.904 217.856 554.24 215.808 553.088 213.44C552 211.008 551.456 208.384 551.456 205.568C551.456 201.216 552.704 197.728 555.2 195.104C557.696 192.416 560.896 190.528 564.8 189.44V188.672C561.472 187.456 558.752 185.6 556.64 183.104C554.528 180.608 553.472 177.408 553.472 173.504C553.472 170.944 553.984 168.576 555.008 166.4C556.032 164.224 557.536 162.368 559.52 160.832C561.504 159.232 563.936 158.016 566.816 157.184C569.696 156.288 573.024 155.84 576.8 155.84C580.512 155.84 583.808 156.288 586.688 157.184C589.632 158.016 592.096 159.232 594.08 160.832C596.064 162.368 597.568 164.224 598.592 166.4C599.616 168.576 600.128 170.944 600.128 173.504C600.128 177.408 599.072 180.608 596.96 183.104C594.848 185.6 592.128 187.456 588.8 188.672V189.44C592.704 190.528 595.904 192.416 598.4 195.104C600.896 197.728 602.144 201.216 602.144 205.568C602.144 208.384 601.568 211.008 600.416 213.44C599.328 215.808 597.696 217.856 595.52 219.584C593.344 221.312 590.688 222.688 587.552 223.712C584.416 224.672 580.832 225.152 576.8 225.152ZM576.8 214.112C580.128 214.112 582.656 213.344 584.384 211.808C586.176 210.272 587.072 208.192 587.072 205.568V203.648C587.072 200.96 586.208 198.88 584.48 197.408C582.752 195.872 580.192 195.104 576.8 195.104C573.408 195.104 570.848 195.872 569.12 197.408C567.392 198.88 566.528 200.96 566.528 203.648V205.568C566.528 208.192 567.392 210.272 569.12 211.808C570.912 213.344 573.472 214.112 576.8 214.112ZM576.8 184.544C580 184.544 582.432 183.808 584.096 182.336C585.76 180.864 586.592 178.88 586.592 176.384V174.944C586.592 172.448 585.728 170.496 584 169.088C582.336 167.616 579.936 166.88 576.8 166.88C573.664 166.88 571.232 167.616 569.504 169.088C567.84 170.496 567.008 172.448 567.008 174.944V176.384C567.008 178.88 567.84 180.864 569.504 182.336C571.168 183.808 573.6 184.544 576.8 184.544ZM634.363 225.152C630.331 225.152 626.747 224.672 623.611 223.712C620.475 222.688 617.819 221.312 615.643 219.584C613.467 217.856 611.803 215.808 610.651 213.44C609.563 211.008 609.019 208.384 609.019 205.568C609.019 201.216 610.267 197.728 612.763 195.104C615.259 192.416 618.459 190.528 622.363 189.44V188.672C619.035 187.456 616.315 185.6 614.203 183.104C612.091 180.608 611.035 177.408 611.035 173.504C611.035 170.944 611.547 168.576 612.571 166.4C613.595 164.224 615.099 162.368 617.083 160.832C619.067 159.232 621.499 158.016 624.379 157.184C627.259 156.288 630.587 155.84 634.363 155.84C638.075 155.84 641.371 156.288 644.251 157.184C647.195 158.016 649.659 159.232 651.643 160.832C653.627 162.368 655.131 164.224 656.155 166.4C657.179 168.576 657.691 170.944 657.691 173.504C657.691 177.408 656.635 180.608 654.523 183.104C652.411 185.6 649.691 187.456 646.363 188.672V189.44C650.267 190.528 653.467 192.416 655.963 195.104C658.459 197.728 659.707 201.216 659.707 205.568C659.707 208.384 659.131 211.008 657.979 213.44C656.891 215.808 655.259 217.856 653.083 219.584C650.907 221.312 648.251 222.688 645.115 223.712C641.979 224.672 638.395 225.152 634.363 225.152ZM634.363 214.112C637.691 214.112 640.219 213.344 641.947 211.808C643.739 210.272 644.635 208.192 644.635 205.568V203.648C644.635 200.96 643.771 198.88 642.043 197.408C640.315 195.872 637.755 195.104 634.363 195.104C630.971 195.104 628.411 195.872 626.683 197.408C624.955 198.88 624.091 200.96 624.091 203.648V205.568C624.091 208.192 624.955 210.272 626.683 211.808C628.475 213.344 631.035 214.112 634.363 214.112ZM634.363 184.544C637.563 184.544 639.995 183.808 641.659 182.336C643.323 180.864 644.155 178.88 644.155 176.384V174.944C644.155 172.448 643.291 170.496 641.563 169.088C639.899 167.616 637.499 166.88 634.363 166.88C631.227 166.88 628.795 167.616 627.067 169.088C625.403 170.496 624.571 172.448 624.571 174.944V176.384C624.571 178.88 625.403 180.864 627.067 182.336C628.731 183.808 631.163 184.544 634.363 184.544Z" fill="url(#paint2_linear_8_2)"/>
<defs>
<linearGradient id="paint0_linear_8_2" x1="24.919" y1="127.424" x2="236.615" y2="127.424" gradientUnits="userSpaceOnUse">
<stop stop-color="#F54A48"/>
<stop offset="1" stop-color="#FA982F"/>
</linearGradient>
<linearGradient id="paint1_linear_8_2" x1="24.804" y1="127.423" x2="236.67" y2="127.423" gradientUnits="userSpaceOnUse">
<stop stop-color="#F54A48"/>
<stop offset="1" stop-color="#FA982F"/>
</linearGradient>
<linearGradient id="paint2_linear_8_2" x1="412" y1="125" x2="664" y2="125" gradientUnits="userSpaceOnUse">
<stop offset="0.9999" stop-color="white"/>
<stop offset="1" stop-color="#F54A48"/>
</linearGradient>
</defs>
</svg>
